# xmcd
#
# Track frame offsets: 
#        150
#        25762
#        50153
#        84392
#        115039
#        144338
#        169157
#        204610
#        254000
#        298130
#
# Disc length: 4642 seconds
#
# Revision: 1
# Processed by: cddbd v1.5.2PL0 Copyright (c) Steve Scherf et al.
# Submitted via: ExactAudioCopyFreeDBPlugin 1.0
#
DISCID=9212200a
DTITLE=Logg - Logg (2012 Remastered)
DYEAR=1981
DGENRE=Funk
TTITLE0=(You've Got) That Something
TTITLE1=Dancing Into The Stars
TTITLE2=Something Else
TTITLE3=I Know You Will
TTITLE4=Lay It On The Line
TTITLE5=Sweet To Me
TTITLE6=I Know You Will (Original Larry Levan Extended 12" Mix)
TTITLE7=I Know You Will (Original Larry Levan 12" Remix)
TTITLE8=(You've Got) That Something (Original John Morales 12" Remix)
TTITLE9=Dancing Into The Stars (Original John Morales 12" Remix)
EXTD=
EXTT0=
EXTT1=
EXTT2=
EXTT3=
EXTT4=
EXTT5=
EXTT6=
EXTT7=
EXTT8=
EXTT9=
PLAYORDER=
